<?xml version="1.0" standalone="no"?>
<!DOCTYPE svg PUBLIC "-//W3C//DTD SVG 20010904//EN"
 "http://www.w3.org/TR/2001/REC-SVG-20010904/DTD/svg10.dtd">
<svg version="1.0" xmlns="http://www.w3.org/2000/svg"
 width="2038.000000pt" height="684.000000pt" viewBox="0 0 2038.000000 684.000000"
 preserveAspectRatio="xMidYMid meet">

<g transform="translate(0.000000,684.000000) scale(0.100000,-0.100000)"
fill="#000000" stroke="none">
<path d="M3524 6690 c-80 -18 -165 -102 -189 -184 -13 -43 -15 -248 -15 -1483
l0 -1433 275 0 275 0 -2 1463 -3 1462 -34 53 c-68 106 -184 152 -307 122z"/>
<path d="M2668 6037 c-26 -8 -55 -20 -65 -27 -47 -36 -87 -79 -106 -115 l-22
-40 -3 -1132 -2 -1133 275 0 275 0 0 1113 c0 1035 -1 1115 -17 1161 -49 134
-198 211 -335 173z"/>
<path d="M1725 5316 c-70 -32 -128 -101 -149 -174 -14 -52 -16 -144 -16 -805
l0 -747 280 0 281 0 -3 768 c-4 851 0 808 -72 889 -55 62 -123 93 -206 93 -47
0 -79 -7 -115 -24z"/>
<path d="M5251 5173 c-52 -18 -118 -81 -146 -138 -19 -39 -20 -66 -23 -742
l-3 -703 276 0 275 0 -2 703 -3 702 -25 49 c-62 122 -212 177 -349 129z"/>
<path d="M18680 4901 c-270 -29 -528 -159 -662 -335 -108 -141 -152 -276 -152
-466 0 -214 46 -342 168 -468 95 -99 187 -159 331 -215 149 -57 236 -85 440
-137 411 -105 556 -172 639 -292 100 -147 85 -367 -35 -502 -113 -128 -285
-187 -544 -187 -312 0 -552 96 -752 299 -41 41 -67 61 -75 56 -30 -19 -250
-219 -256 -232 -8 -22 142 -162 243 -228 248 -161 548 -235 895 -220 399 17
692 153 848 396 83 128 122 268 122 435 0 243 -86 426 -259 554 -115 85 -330
181 -517 231 -43 12 -146 39 -229 61 -328 87 -462 146 -550 241 -64 69 -88
134 -88 243 -2 237 184 408 483 445 206 25 359 1 535 -86 101 -50 202 -127
253 -194 19 -25 40 -48 47 -52 14 -8 268 195 274 219 4 22 -163 183 -247 237
-213 137 -404 193 -684 200 -84 3 -187 1 -228 -3z"/>
<path d="M7017 4863 c-4 -3 -7 -642 -7 -1418 0 -1190 2 -1414 14 -1424 9 -8
68 -11 187 -9 l174 3 3 598 c2 467 5 597 15 597 139 2 751 0 753 -2 1 -2 22
-46 47 -98 25 -52 84 -176 131 -275 48 -99 122 -252 164 -340 42 -88 113 -232
157 -320 l80 -160 199 -3 c110 -1 203 1 207 5 4 5 -37 100 -93 213 -55 113
-124 255 -153 315 -29 61 -123 254 -209 429 -86 176 -153 322 -149 326 5 4 34
16 67 28 124 47 289 175 364 284 91 133 126 253 125 433 -1 166 -19 249 -86
385 -41 85 -65 118 -122 175 -90 91 -214 167 -332 205 -178 57 -218 60 -904
60 -344 0 -629 -3 -632 -7z m1339 -343 c220 -56 346 -214 361 -450 13 -209
-78 -375 -250 -460 -132 -65 -193 -71 -667 -68 l-405 3 -3 485 c-1 267 0 491
3 498 3 9 101 12 443 12 407 0 445 -1 518 -20z"/>
<path d="M9307 4863 c-4 -3 -7 -75 -7 -159 0 -129 2 -153 16 -158 9 -3 231 -6
495 -6 l479 0 2 -1262 3 -1263 185 0 185 0 3 1263 2 1262 484 0 c400 0 486 2
495 14 8 9 11 61 9 162 l-3 149 -1171 3 c-644 1 -1174 -1 -1177 -5z"/>
<path d="M12512 4853 c-6 -10 -107 -265 -225 -568 -119 -302 -318 -809 -442
-1125 -416 -1057 -445 -1132 -439 -1141 9 -15 370 -11 381 4 9 11 63 149 233
597 35 91 67 171 73 178 7 9 148 12 641 12 l631 0 134 -347 c74 -192 145 -372
157 -400 l23 -53 195 0 c107 0 197 4 200 8 2 4 -41 122 -96 262 -280 713 -935
2380 -988 2515 l-27 70 -221 3 c-203 2 -222 1 -230 -15z m238 -435 c0 -7 128
-344 366 -959 63 -163 114 -301 114 -308 0 -8 -131 -11 -505 -11 -278 0 -505
1 -505 3 0 2 27 75 61 162 33 88 85 223 114 300 75 198 257 674 295 774 30 77
34 83 46 66 8 -10 14 -22 14 -27z"/>
<path d="M14430 3459 l0 -1411 -60 -66 c-37 -40 -78 -101 -103 -151 -41 -83
-42 -86 -42 -190 0 -99 2 -110 30 -160 84 -152 292 -219 560 -181 114 17 105
5 105 140 l0 118 -122 4 c-174 5 -218 34 -218 145 0 90 61 185 175 273 l55 42
0 1424 0 1424 -190 0 -190 0 0 -1411z"/>
<path d="M15157 4863 c-2 -5 63 -188 144 -408 82 -220 223 -600 313 -845 364
-983 555 -1497 573 -1545 l19 -50 202 -3 203 -2 15 36 c8 20 39 102 68 183 29
80 259 703 510 1384 251 681 456 1242 456 1248 0 5 -80 9 -194 9 l-194 0 -45
-127 c-25 -71 -156 -441 -292 -823 -136 -382 -282 -794 -325 -915 -43 -121
-100 -282 -127 -357 -26 -76 -53 -138 -58 -138 -9 0 -161 413 -580 1570 -37
102 -73 201 -81 220 -10 28 -149 409 -196 543 l-10 27 -198 0 c-110 0 -201 -3
-203 -7z"/>
<path d="M6140 4381 c-86 -28 -139 -73 -183 -155 -21 -39 -22 -54 -25 -339
l-3 -297 278 2 278 3 0 290 0 290 -28 57 c-46 93 -128 148 -232 154 -33 2 -71
0 -85 -5z"/>
<path d="M4369 4227 c-86 -32 -140 -83 -173 -161 -13 -31 -16 -80 -16 -257 l0
-219 276 0 276 0 -4 223 c-3 217 -4 223 -30 272 -31 60 -67 95 -128 126 -53
28 -149 35 -201 16z"/>
<path d="M895 4122 c-33 -11 -68 -34 -102 -67 -71 -69 -83 -114 -83 -312 l0
-153 275 0 275 0 0 168 c0 154 -2 171 -24 217 -43 94 -153 166 -250 164 -23 0
-63 -8 -91 -17z"/>
<path d="M712 3208 c3 -161 5 -176 28 -221 49 -96 138 -151 245 -151 83 0 152
31 205 90 63 72 70 100 70 287 l0 167 -276 0 -276 0 4 -172z"/>
<path d="M1562 2613 l3 -768 23 -50 c79 -173 294 -219 435 -95 25 23 54 62 68
92 l24 53 3 768 3 767 -281 0 -280 0 2 -767z"/>
<path d="M2472 2248 l3 -1133 27 -45 c55 -94 139 -143 243 -143 109 0 194 54
244 155 l31 61 0 1119 0 1118 -275 0 -275 0 2 -1132z"/>
<path d="M3322 1928 l3 -1453 27 -50 c53 -100 133 -149 243 -149 110 -1 204
56 252 153 17 34 18 108 21 1494 l2 1457 -275 0 -275 0 2 -1452z"/>
<path d="M4182 3153 c3 -252 7 -268 73 -336 131 -135 348 -103 440 64 l30 54
3 223 4 222 -277 0 -276 0 3 -227z"/>
<path d="M5082 2678 l3 -703 22 -41 c87 -162 280 -202 429 -89 18 14 46 53 63
86 l31 62 0 694 0 693 -275 0 -276 0 3 -702z"/>
<path d="M5932 3087 l3 -293 30 -59 c108 -211 405 -198 502 22 15 32 18 82 21
331 l4 292 -282 0 -281 0 3 -293z"/>
</g>
</svg>
